<?xml version="1.0" encoding="UTF-8" standalone="no"?>
<!-- Uploaded to: SVG Repo, www.svgrepo.com, Generator: SVG Repo Mixer Tools -->

<svg
   width="75.909988"
   height="36"
   viewBox="0 0 97.164785 46.08"
   version="1.1"
   id="svg844"
   sodipodi:docname="etsy-svgrepo-com.svg"
   xmlns:inkscape="http://www.inkscape.org/namespaces/inkscape"
   xmlns:sodipodi="http://sodipodi.sourceforge.net/DTD/sodipodi-0.dtd"
   xmlns="http://www.w3.org/2000/svg"
   xmlns:svg="http://www.w3.org/2000/svg">
  <defs
     id="defs848" />
  <sodipodi:namedview
     id="namedview846"
     pagecolor="#ffffff"
     bordercolor="#000000"
     borderopacity="0.25"
     inkscape:showpageshadow="2"
     inkscape:pageopacity="0.0"
     inkscape:pagecheckerboard="0"
     inkscape:deskcolor="#d1d1d1"
     showgrid="false" />
  <path
     d="M 10.420525,16.643849 V 3.6189899 c 0,-0.4778595 0.04779,-0.7725396 0.868111,-0.7725396 h 11.046521 c 1.930553,0 2.991401,1.6406512 3.763941,4.7276242 l 0.627589,2.4609765 h 1.881174 C 28.945548,3.0407798 29.233857,0 29.233857,0 c 0,0 -4.727624,0.53042414 -7.524696,0.53042414 H 7.5740745 L 0,0.29149435 V 2.317619 l 2.5565488,0.4778596 c 1.785602,0.3376874 2.2188613,0.7231608 2.3638121,2.3638121 0,0 0.1449507,4.8231961 0.1449507,12.7843373 0,7.96114 -0.1449507,12.742922 -0.1449507,12.742922 0,1.446322 -0.579803,1.976746 -2.3638121,2.316026 L 0,33.480436 v 2.024531 L 7.5740745,35.264445 H 20.213461 c 2.84645,0 9.455248,0.240522 9.455248,0.240522 0.144951,-1.736223 1.115006,-9.600199 1.255178,-10.466717 h -1.785602 l -1.881174,4.300736 c -1.495701,3.375281 -3.66359,3.617397 -6.078374,3.617397 h -7.188601 c -2.411598,0 -3.569611,-0.965276 -3.569611,-3.039187 V 18.91209 c 0,0 5.256455,0 7.091436,0.14495 1.35075,0.09717 2.171075,0.47786 2.605928,2.363812 l 0.579803,2.508763 h 2.070724 l -0.149729,-6.320489 0.289902,-6.371461 h -2.070725 l -0.675375,2.797071 c -0.434852,1.833388 -0.723161,2.171075 -2.605928,2.363812 -2.121696,0.242116 -7.139222,0.192737 -7.139222,0.192737 v 0.04779 z M 39.0252,4.9713326 c -0.675375,2.991401 -1.35075,5.3058344 -3.714562,6.8493204 -1.446322,0.963684 -2.894236,1.301371 -3.472447,1.35075 v 1.833388 h 4.300737 v 14.813647 c 0,4.14145 2.750878,6.175539 6.416061,6.175539 2.84645,0 5.788473,-1.205799 6.801535,-3.714562 l -1.013062,-1.302964 c -0.47786,0.820326 -2.024532,2.026125 -3.955085,2.026125 -2.121697,0 -3.27971,-1.447915 -3.27971,-5.113098 V 14.812054 l 7.140816,0.530424 0.385473,-3.281302 -7.539031,0.289901 V 5.0238971 L 39.0252,4.9761112 Z m 15.24372,22.7779734 -1.833387,0.04779 c 0.09557,1.060848 0.14495,2.411598 0.14495,3.66359 0,1.302964 -0.04779,2.508763 -0.14495,3.086973 0,0 3.66359,1.349157 7.381337,1.349157 5.017526,0 9.020396,-2.411598 9.020396,-7.139222 0,-8.102906 -12.156747,-6.897107 -12.156747,-12.349485 0,-2.266647 2.026124,-3.134759 4.244986,-3.134759 1.736223,0 3.18573,0.627589 3.472446,1.54508 l 1.205799,3.617397 1.785602,-0.09557 c 0.144951,-1.930553 0.240523,-4.14145 0.530424,-5.933423 -1.543486,-0.675375 -4.778596,-1.062441 -6.801535,-1.062441 -4.729217,0 -8.539351,2.070724 -8.539351,6.705962 0,8.05512 11.866847,6.416062 11.866847,12.349485 0,2.121697 -1.302964,3.617397 -4.244986,3.617397 -2.707871,0 -4.052249,-1.398536 -4.581081,-2.798664 l -1.352342,-3.472446 z m 29.074571,5.575029 c -2.792293,7.80504 -6.212175,9.821607 -9.292776,9.821607 -1.301371,0 -1.925775,-0.57821 -2.120104,-1.490922 l -0.721568,-3.757569 -2.022939,0.09557 c -0.385473,2.215676 -0.770947,4.671874 -1.299778,6.690034 1.204206,0.914305 3.225552,1.396943 4.815232,1.396943 3.322717,0 8.378471,-0.434852 13.000966,-11.41288 l 7.752475,-18.297243 c 0.625997,-1.492515 0.866519,-1.637466 2.696721,-2.360627 l 1.013063,-0.380695 v -1.685251 l -4.574709,0.240523 -4.910804,-0.240523 v 1.685251 l 1.251992,0.383881 c 1.251992,0.385473 1.830202,0.866519 1.830202,1.73463 0,0.43326 -0.14495,0.866519 -0.387066,1.540301 C 89.65283,19.11916 85.173693,30.000023 83.97108,32.31127 l 1.202613,-0.43485 C 83.055182,26.627929 79.82963,17.859206 79.348584,16.373062 a 2.3988551,2.3988551 0 0 1 -0.14495,-0.772539 c 0,-0.769354 0.528831,-1.396943 1.685251,-1.637466 l 1.592865,-0.336094 v -1.683659 l -6.597648,0.240523 -5.248491,-0.240523 v 1.685251 l 0.866519,0.288309 c 1.204206,0.385473 1.492515,0.723161 2.215676,2.408412 3.994906,9.149419 5.874487,14.155794 8.424664,20.707249 l 1.205799,-3.70819 z"
     style="fill:#f56400;fill-opacity:1;stroke-width:0.159287"
     id="path842" />
</svg>
